<svg width="175" height="100" viewBox="0 0 175 100" fill="none" xmlns="http://www.w3.org/2000/svg">
<path d="M84.0764 31.0787L75.3381 21.6274V42.0437H71.5027V15.8057L75.0311 16.0364L75.3003 15.9856L84.0764 26.5814L92.9469 15.8057H96.5415V42.0437H92.6683V21.6274" fill="#B09672"/>
<path d="M95.7576 15.8057H99.6024V38.6263H111.694V42.0437H95.7576V15.8057Z" fill="white"/>
<path d="M74.9107 42.0437H65.8181V15.8057H72.8536C75.0705 15.8057 76.8024 16.0964 78.0494 16.6779C79.2185 17.1833 80.2066 18.0181 80.8873 19.0753C81.568 20.1326 81.9104 21.3642 81.8706 22.6126C81.8706 25.1924 80.5056 27.0383 77.7754 28.1505C79.7372 28.512 81.2975 29.3004 82.4563 30.5156C83.5997 31.689 84.2249 33.2546 84.1969 34.8744C84.2182 36.1513 83.8472 37.4052 83.1318 38.474C82.353 39.5893 81.281 40.4789 80.0285 41.0491C78.6681 41.7122 76.9622 42.0437 74.9107 42.0437ZM72.9764 19.1515H69.6701V27.0383H72.2207C74.2675 27.0383 75.7255 26.6537 76.5946 25.8846C77.0194 25.5125 77.3556 25.054 77.5796 24.5414C77.8036 24.0287 77.9099 23.4743 77.8911 22.9172C77.8911 20.4067 76.2529 19.1515 72.9764 19.1515ZM73.2646 30.3818H69.6701V38.7025H73.4488C75.5507 38.7025 76.9764 38.5433 77.7258 38.2248C78.4662 37.9121 79.095 37.3917 79.5325 36.7296C79.9779 36.0866 80.2157 35.3278 80.2151 34.5514C80.219 33.7631 79.9667 32.994 79.4947 32.3547C78.9826 31.6682 78.2682 31.1506 77.4471 30.871C76.5639 30.5449 75.1673 30.381 73.2575 30.3795L73.2646 30.3818Z" fill="white"/>
<path d="M117.481 59.3683H56.7163V0H117.481V59.3683ZM58.6057 57.5224H115.591V1.84596H58.6057V57.5224Z" fill="white"/>
<path d="M5.24534 85.8117H0V70.6748H4.05977C5.33666 70.6748 6.33488 70.8432 7.05441 71.1801C7.73131 71.4751 8.30572 71.9562 8.7076 72.5646C9.09085 73.1789 9.28666 73.8874 9.27205 74.6067C9.27205 76.0958 8.48482 77.161 6.91035 77.8025C7.93873 77.9595 8.88699 78.439 9.61214 79.1685C10.2665 79.8479 10.6218 80.751 10.6017 81.6836C10.6151 82.4198 10.4029 83.143 9.99237 83.7603C9.54292 84.4036 8.92458 84.9169 8.2022 85.2463C7.27424 85.6546 6.26236 85.848 5.24534 85.8117V85.8117ZM4.1259 72.6038H2.21764V77.1541H3.69371C4.87613 77.1541 5.7169 76.9341 6.21601 76.4942C6.46163 76.2799 6.65602 76.0154 6.7854 75.7195C6.91478 75.4237 6.97598 75.1036 6.96467 74.7821C6.96467 73.3314 6.01841 72.6054 4.1259 72.6038ZM4.29122 79.0832H2.21764V83.885H4.40222C5.61613 83.885 6.43879 83.7927 6.8702 83.6081C7.29825 83.4282 7.66169 83.1278 7.91407 82.7451C8.16993 82.3742 8.30645 81.9371 8.30611 81.4898C8.30956 81.0343 8.16392 80.5897 7.89045 80.2207C7.59511 79.8247 7.18317 79.526 6.7096 79.3647C6.19947 79.1785 5.39335 79.0847 4.29122 79.0832V79.0832Z" fill="white"/>
<path d="M13.7612 85.8117V70.6748H17.6439C19.2183 70.6748 20.4622 71.054 21.3754 71.8124C22.2886 72.5708 22.7491 73.5968 22.757 74.8905C22.7895 75.7041 22.5524 76.5062 22.0809 77.1777C21.6095 77.8491 20.9288 78.3539 20.1402 78.617C20.6852 78.9812 21.1743 79.4194 21.5926 79.9184C22.3215 80.8315 22.9882 81.7904 23.5883 82.7889C24.1299 83.6488 24.5629 84.2957 24.8872 84.7295L25.7067 85.8117H23.0663L22.3909 84.8148C22.3696 84.7802 22.3248 84.7179 22.2586 84.6302L21.8264 84.0349L21.1392 82.9297L20.3976 81.7459C20.0169 81.2185 19.5928 80.7223 19.1294 80.2623C18.8245 79.9524 18.4772 79.6853 18.0973 79.4685C17.7903 79.307 17.2731 79.2239 16.548 79.2239H15.9812V85.8117H13.7612ZM16.6449 72.5161H15.9812V77.2995H16.8244C17.9462 77.2995 18.7137 77.2072 19.1365 77.018C19.5433 76.8398 19.8839 76.5432 20.1119 76.1688C20.3486 75.7764 20.4696 75.3275 20.4614 74.8721C20.4668 74.4111 20.332 73.959 20.0741 73.573C19.8147 73.1876 19.4292 72.8996 18.9806 72.7561C18.5106 72.5969 17.7336 72.5161 16.6449 72.5161Z" fill="white"/>
<path d="M38.4273 70.6748H40.6568V79.2677C40.6868 80.1526 40.5995 81.0376 40.397 81.9005C40.2545 82.4208 40.0375 82.9188 39.7523 83.3796C39.494 83.7767 39.1755 84.133 38.8076 84.4364C37.5826 85.4702 35.9783 85.987 33.9944 85.987C31.9775 85.987 30.359 85.474 29.1388 84.448C28.7728 84.1383 28.4546 83.7784 28.1941 83.3796C27.9127 82.9298 27.6995 82.4424 27.5612 81.9328C27.3927 81.3637 27.3092 80.4684 27.3108 79.247V70.6748H29.5403V79.2677C29.5403 80.6907 29.7072 81.6806 30.0409 82.2374C30.4015 82.8197 30.9297 83.2852 31.5595 83.5758C32.3101 83.9259 33.1346 84.0982 33.9661 84.0788C35.2808 84.0788 36.353 83.7427 37.1827 83.0704C37.6052 82.7311 37.9307 82.2907 38.1274 81.7921C38.3195 81.2998 38.4155 80.4584 38.4155 79.2677L38.4273 70.6748Z" fill="white"/>
<path d="M57.5358 82.3018V84.6831C55.8014 85.576 53.8632 86.0238 51.9031 85.9845C50.1712 85.9845 48.703 85.6445 47.4986 84.9646C46.3045 84.2976 45.3159 83.3293 44.6362 82.161C43.938 80.9861 43.5743 79.65 43.5829 78.2914C43.5613 77.2512 43.7649 76.2183 44.1805 75.2603C44.596 74.3024 45.2141 73.441 45.9942 72.7328C47.608 71.2314 49.5958 70.4807 51.9575 70.4807C53.5855 70.4807 55.3961 70.8961 57.3894 71.7267V74.0549C55.5787 73.0443 53.8075 72.539 52.0755 72.539C50.3027 72.539 48.8298 73.0858 47.6568 74.1796C47.0843 74.7056 46.6319 75.3437 46.3291 76.0523C46.0263 76.7608 45.88 77.5238 45.8997 78.2914C45.8997 79.9543 46.4759 81.3203 47.6285 82.3894C48.781 83.4586 50.2499 83.9924 52.0354 83.9908C53.9137 83.9908 55.7472 83.4278 57.5358 82.3018Z" fill="white"/>
<path d="M60.7192 70.6748H69.5024V72.6038H62.9369V77.2187H69.2804V79.1593H62.9369V83.8619H69.7126V85.7909H60.7192V70.6748Z" fill="white"/>
<path d="M92.0708 70.6745H94.1444V85.8114H91.9149V74.0434L87.1466 79.8858H86.7381L81.9178 74.0342V85.8021H79.7002V70.6653H81.7997L86.9483 76.8815L92.0708 70.6745Z" fill="white"/>
<path d="M102.885 70.5867H104.444L111.389 85.8158H109.11L107.046 81.3302H100.433L98.4968 85.8158H96.2178L102.885 70.5867ZM106.144 79.3965L103.643 73.914L101.317 79.3965H106.144Z" fill="white"/>
<path d="M109.949 70.6538H122.891V72.5828H117.49V85.8114H115.251V72.5828H109.949V70.6538Z" fill="white"/>
<path d="M124.644 70.6538H137.997L128.099 83.8847H137.997V85.8114H124.011L133.93 72.5828H124.644V70.6538Z" fill="white"/>
<path d="M148.877 70.6748H151.65L144.928 77.8602L153.303 85.8117H150.275L142.356 78.3355V85.8117H140.136V70.6748H142.356V77.5972L148.877 70.6748Z" fill="white"/>
<path d="M155.032 70.6748H157.249V85.8117H155.032V70.6748Z" fill="white"/>
<path d="M172.09 70.6748H174.197V85.8117H172.291L161.93 74.1544V85.8117H159.847V70.6748H161.642L172.09 82.4313V70.6748Z" fill="white"/>
<path d="M74.5872 92.3992H75.6948V98.9892H79.183V99.9745H74.5872V92.3992Z" fill="white"/>
<path d="M83.9916 92.3577H84.771L88.2427 99.9723H87.1091L86.0746 97.7294H82.7683L81.8 99.9723H80.6616L83.9916 92.3577ZM85.6212 96.7603L84.3695 94.019L83.2123 96.7603H85.6212Z" fill="white"/>
<path d="M98.5038 92.3992H99.6114L96.4798 99.9999H96.2436L93.7119 93.8459L91.1518 99.9999H90.9156L87.7935 92.3992H88.9105L91.0361 97.6163L93.1852 92.3992H94.2315L96.3924 97.6163L98.5038 92.3992Z" fill="white"/>
</svg>
