<svg width="38" height="25" viewBox="0 0 38 25" fill="none" xmlns="http://www.w3.org/2000/svg">
<path d="M0.793309 2.02839C6.00865 5.9028 15.16 12.7191 17.8496 14.8444C18.2107 15.1313 18.598 15.2771 19 15.2771C19.4012 15.2771 19.7879 15.1326 20.1481 14.8471C22.8401 12.7197 31.9914 5.9028 37.2068 2.02839C37.5315 1.78763 37.581 1.36445 37.3181 1.07012C36.7104 0.389974 35.8044 0 34.8333 0H3.16675C2.19574 0 1.28961 0.389974 0.681981 1.07018C0.419098 1.36445 0.468602 1.78763 0.793309 2.02839Z" fill="white"/>
<path d="M37.5407 4.12797C37.2601 4.01339 36.9299 4.05337 36.6964 4.22837C33.2808 6.76808 28.7806 10.1237 25.3866 12.6844C25.2081 12.8187 25.1076 13.0161 25.1114 13.2229C25.1153 13.4291 25.2243 13.6237 25.4083 13.7525C28.5619 15.9681 33.3142 19.0158 36.7459 21.1819C36.8828 21.2687 37.0451 21.3127 37.2083 21.3127C37.332 21.3127 37.4556 21.2877 37.5693 21.2361C37.8338 21.1174 37.9999 20.8787 37.9999 20.6183V4.75799C37.9999 4.48741 37.8205 4.24126 37.5407 4.12797Z" fill="white"/>
<path d="M1.254 21.182C4.68661 19.0159 9.43972 15.9683 12.5925 13.7527C12.7764 13.6238 12.8855 13.4291 12.8893 13.223C12.8932 13.0162 12.7927 12.8189 12.6141 12.6846C9.2201 10.1238 4.71904 6.76821 1.3035 4.2285C1.06845 4.0535 0.737585 4.01489 0.459265 4.12811C0.179386 4.24139 0 4.48755 0 4.75812V20.6185C0 20.8789 0.16625 21.1176 0.430616 21.2363C0.544245 21.2879 0.667967 21.3129 0.79169 21.3129C0.954822 21.3129 1.11714 21.2689 1.254 21.182Z" fill="white"/>
<path d="M37.0298 23.0713C33.7155 20.9914 27.6102 17.1137 23.9657 14.5189C23.6689 14.3067 23.239 14.3135 22.9468 14.5345C22.2317 15.0818 21.6333 15.543 21.2088 15.878C19.9053 16.9101 18.0962 16.9101 16.7897 15.8766C16.3668 15.5423 15.7684 15.0797 15.0533 14.5345C14.7634 14.312 14.3328 14.3053 14.0351 14.5189C10.403 17.1047 4.29076 20.9872 0.97104 23.0713C0.786235 23.1879 0.667189 23.3676 0.644032 23.5663C0.621618 23.765 0.696579 23.9623 0.851993 24.1088C1.45123 24.6752 2.29547 25 3.1668 25H34.8334C35.7048 25 36.5482 24.6752 37.1489 24.1089C37.3035 23.9631 37.3793 23.7657 37.3569 23.567C37.3336 23.3684 37.2146 23.188 37.0298 23.0713Z" fill="white"/>
</svg>
