<svg width="35" height="35" viewBox="0 0 35 35" fill="none" xmlns="http://www.w3.org/2000/svg">
<path d="M34.3194 27.8307L30.4393 25.2437L26.99 22.9446C26.3243 22.5017 25.4297 22.6469 24.9383 23.2777L22.8039 26.0216C22.3455 26.617 21.5207 26.7881 20.8632 26.424C19.415 25.6184 17.7024 24.8599 13.9237 21.0764C10.1449 17.2928 9.38158 15.585 8.57597 14.1368C8.21196 13.4793 8.38306 12.6546 8.97847 12.1961L11.7223 10.0618C12.3531 9.57042 12.4983 8.67581 12.0554 8.01007L9.82694 4.66699L7.16936 0.68058C6.71703 0.00205218 5.81155 -0.201657 5.11224 0.217724L2.04731 2.05644C1.21901 2.54445 0.610136 3.33249 0.346819 4.25717C-0.491327 7.31301 -0.66031 14.0541 10.1431 24.8575C20.9465 35.6609 27.6869 35.4914 30.7428 34.6531C31.6675 34.3899 32.4555 33.781 32.9435 32.9526L34.7822 29.8878C35.2017 29.1884 34.998 28.283 34.3194 27.8307Z" fill="white"/>
<path d="M19.9135 5.43087C25.5764 5.43716 30.1657 10.0264 30.172 15.6894C30.172 16.0226 30.4421 16.2929 30.7754 16.2929C31.1087 16.2929 31.3789 16.0227 31.3789 15.6894C31.3719 9.36013 26.2428 4.23097 19.9135 4.224C19.5803 4.224 19.3101 4.49415 19.3101 4.82747C19.31 5.16065 19.5801 5.43087 19.9135 5.43087Z" fill="white"/>
<path d="M19.9135 9.05155C23.5778 9.05585 26.5471 12.0252 26.5514 15.6894C26.5514 16.0226 26.8215 16.2928 27.1548 16.2928C27.4881 16.2928 27.7583 16.0227 27.7583 15.6894C27.7533 11.3589 24.2441 7.84959 19.9135 7.8446C19.5803 7.8446 19.3101 8.11476 19.3101 8.44808C19.3101 8.78139 19.5802 9.05155 19.9135 9.05155Z" fill="white"/>
<path d="M19.9135 12.6722C21.579 12.6742 22.9287 14.0239 22.9307 15.6894C22.9307 16.0227 23.2008 16.2929 23.5341 16.2929C23.8674 16.2929 24.1376 16.0227 24.1376 15.6894C24.135 13.3576 22.2453 11.468 19.9135 11.4653C19.5803 11.4653 19.3101 11.7355 19.3101 12.0688C19.31 12.4021 19.5801 12.6722 19.9135 12.6722Z" fill="white"/>
</svg>
