<svg width="32" height="31" viewBox="0 0 32 31" fill="none" xmlns="http://www.w3.org/2000/svg">
<path d="M16 0C7.16479 0 0 6.84108 0 15.2771C0 23.7131 7.16479 30.5542 16 30.5542C24.8352 30.5542 32 23.7131 32 15.2771C32 6.84108 24.8352 0 16 0ZM11.3506 23.0947H7.45386V11.901H11.3506V23.0947ZM9.40234 10.3725H9.37695C8.06934 10.3725 7.22363 9.51299 7.22363 8.43882C7.22363 7.3404 8.09521 6.5047 9.42822 6.5047C10.7612 6.5047 11.5815 7.3404 11.6069 8.43882C11.6069 9.51299 10.7612 10.3725 9.40234 10.3725ZM25.4014 23.0947H21.5051V17.1063C21.5051 15.6014 20.9409 14.575 19.531 14.575C18.4546 14.575 17.8135 15.2673 17.5317 15.9356C17.4287 16.1748 17.4036 16.5091 17.4036 16.8436V23.0947H13.5071C13.5071 23.0947 13.5581 12.9511 13.5071 11.901H17.4036V13.4859C17.9214 12.7231 18.8479 11.6383 20.9153 11.6383C23.479 11.6383 25.4014 13.2381 25.4014 16.6762V23.0947Z" fill="white"/>
</svg>
