<svg width="22" height="22" viewBox="0 0 22 22" fill="none" xmlns="http://www.w3.org/2000/svg">
<circle cx="11" cy="11" r="10.6" stroke="#B09673" stroke-width="0.8"/>
<path d="M6.21209 4.40002C5.7199 4.40002 5.27244 4.57901 4.93685 4.9146C4.57889 5.27256 4.3999 5.71999 4.3999 6.18982C4.3999 6.68201 4.60126 7.12947 4.93685 7.46506C5.27244 7.80065 5.74226 8.002 6.18972 7.97964C6.18972 7.97964 6.21209 7.97964 6.23448 7.97964C6.68194 7.97964 7.10701 7.80065 7.4426 7.46506C7.77819 7.12947 7.97954 6.68201 7.97954 6.18982C8.00191 5.71999 7.80055 5.27253 7.46496 4.93694C7.12937 4.57899 6.68191 4.40002 6.21209 4.40002ZM7.12937 7.15186C6.88327 7.39797 6.54768 7.55457 6.18972 7.5322C5.85413 7.5322 5.49618 7.39797 5.25007 7.15186C4.9816 6.90575 4.84736 6.5478 4.84736 6.18984C4.84736 5.83189 4.9816 5.4963 5.25007 5.22783C5.49618 4.98172 5.83177 4.84749 6.21209 4.84749C6.54768 4.84749 6.88327 4.98172 7.12937 5.22783C7.39785 5.4963 7.53208 5.83189 7.53208 6.18984C7.53208 6.5478 7.39785 6.90575 7.12937 7.15186Z" fill="#B09673"/>
<path d="M7.08453 8.42725H5.27235C4.9144 8.42725 4.62354 8.71808 4.62354 9.09843V16.9289C4.62354 17.2868 4.93676 17.6 5.29471 17.6H7.08453C7.44249 17.6 7.75571 17.2868 7.75571 16.9512V9.09843C7.75571 8.74045 7.44249 8.42725 7.08453 8.42725ZM7.30825 16.9512C7.30825 17.0631 7.19638 17.1526 7.08453 17.1526H5.29471C5.18284 17.1526 5.071 17.0407 5.071 16.9289V9.09843C5.071 8.98655 5.16048 8.87471 5.27235 8.87471H7.08453C7.19641 8.87471 7.30825 8.98658 7.30825 9.09843V16.9512Z" fill="#B09673"/>
<path d="M14.6913 8.20325H14.2215C13.349 8.20325 12.5212 8.58359 11.9842 9.18765V8.87443C11.9842 8.65071 11.7605 8.42696 11.5368 8.42696H9.29951C9.09816 8.42696 8.85205 8.60595 8.85205 8.85204V17.197C8.85205 17.4431 9.09816 17.5997 9.29951 17.5997H11.7605C11.9619 17.5997 12.208 17.4431 12.208 17.197V12.3645C12.208 11.6262 12.7449 11.0445 13.4385 11.0445C13.7964 11.0445 14.132 11.1788 14.3781 11.4249C14.6018 11.6262 14.6913 11.9395 14.6913 12.3422V17.1523C14.6913 17.376 14.9151 17.5998 15.1388 17.5998H17.3761C17.5998 17.5998 17.8235 17.376 17.8235 17.1523V11.3802C17.8235 9.59036 16.4588 8.20325 14.6913 8.20325ZM17.376 17.1299L17.3537 17.1523H15.1611L15.1388 12.3422C15.1388 11.8053 15.0045 11.4025 14.7137 11.1117C14.3781 10.7761 13.9306 10.5971 13.4608 10.5971C12.5212 10.6195 11.7829 11.3802 11.7829 12.3646V17.1523H9.32188V8.87443H11.5368L11.5591 8.89679V10.3063L12.1632 9.70221L12.1856 9.67984C12.633 9.05342 13.416 8.65071 14.2438 8.65071H14.7137C16.2126 8.65071 17.376 9.85883 17.376 11.3802V17.1299Z" fill="#B09673"/>
</svg>
