<svg width="57" height="53" viewBox="0 0 57 53" fill="none" xmlns="http://www.w3.org/2000/svg">
<path d="M33.0136 15.1477H36.0695V36.2801H32.7847V19.8366L25.7651 28.0063H25.1607L18.0589 19.8366V36.2801H14.79V15.1477H17.8842L25.472 23.8267L33.0136 15.1477Z" fill="#A66F3F"/>
<path d="M35.4116 15.1477H38.6804V33.5277H48.9608V36.2801H35.4116V15.1477Z" fill="#EEDDCC"/>
<path d="M17.6898 36.2801H9.95947V15.1477H15.9409C17.8263 15.1477 19.2961 15.3819 20.3543 15.8521C21.4104 16.3204 22.2176 16.9671 22.7737 17.7886C23.3299 18.61 23.607 19.5615 23.607 20.6394C23.607 22.7172 22.4465 24.2039 20.1254 25.1015C21.7919 25.3933 23.1191 26.0289 24.105 27.0083C25.0908 27.9859 25.5848 29.1567 25.5848 30.5171C25.5848 31.5968 25.2856 32.5595 24.6852 33.4069C24.0849 34.2544 23.2054 34.9457 22.0449 35.4791C20.8843 36.0125 19.4326 36.2801 17.6898 36.2801ZM16.0393 17.8406H13.2283V24.1946H15.4008C17.1437 24.1946 18.3845 23.8861 19.1194 23.271C19.8543 22.6558 20.2217 21.8586 20.2217 20.881C20.2217 18.8534 18.8283 17.8406 16.0393 17.8406ZM16.2843 26.8857H13.2283V33.5872H16.4489C18.2359 33.5872 19.4487 33.459 20.0852 33.2007C20.7217 32.9442 21.2357 32.5428 21.6212 31.9982C22.0067 31.4537 22.2015 30.8683 22.2015 30.2439C22.2015 29.599 21.9967 29.008 21.5891 28.4746C21.1815 27.9394 20.6012 27.5417 19.8483 27.2796C19.0953 27.0176 17.9067 26.8857 16.2843 26.8857Z" fill="#EEDDCC"/>
<path d="M53.1553 3.08813H2.94629V49.5605H53.1553V3.08813Z" stroke="#EEDDCC" stroke-width="5.7705" stroke-miterlimit="10"/>
</svg>
