<svg width="22" height="15" viewBox="0 0 22 15" fill="none" xmlns="http://www.w3.org/2000/svg">
<path d="M19.9375 0H1.81251C0.812864 0 0 0.747461 0 1.66668V13.3334C0 14.2525 0.812864 15 1.81251 15H19.9375C20.9371 15 21.75 14.2525 21.75 13.3333V1.66668C21.75 0.747461 20.9371 0 19.9375 0ZM1.81251 0.83332H19.9375C20.0043 0.83332 20.0631 0.855703 20.1258 0.86836C18.5566 2.18895 13.3534 6.56598 11.5326 8.07453C11.3901 8.19254 11.1605 8.33332 10.875 8.33332C10.5896 8.33332 10.36 8.19254 10.217 8.07414C8.39635 6.56582 3.19287 2.18855 1.62394 0.868438C1.68673 0.855781 1.74569 0.83332 1.81251 0.83332ZM0.906236 13.3333V1.66668C0.906236 1.58504 0.932999 1.51098 0.956958 1.43637C2.15797 2.44715 5.78852 5.50121 8.14261 7.46969C5.79616 9.32309 2.16468 12.489 0.954111 13.5505C0.932744 13.4796 0.906236 13.4104 0.906236 13.3333ZM19.9375 14.1667H1.81251C1.74013 14.1667 1.67577 14.1435 1.60818 14.1286C2.85911 13.0321 6.5137 9.84793 8.8189 8.03453C9.11941 8.2852 9.39392 8.51375 9.61031 8.69305C9.9838 9.00312 10.421 9.16668 10.875 9.16668C11.329 9.16668 11.7662 9.00309 12.1392 8.69344C12.3557 8.51406 12.6304 8.28531 12.9311 8.03453C15.2364 9.84773 18.8905 13.0316 20.1418 14.1286C20.0742 14.1435 20.01 14.1667 19.9375 14.1667ZM20.8438 13.3333C20.8438 13.4103 20.8173 13.4796 20.7959 13.5505C19.5849 12.4885 15.9538 9.32289 13.6074 7.46973C15.9616 5.50125 19.5916 2.44746 20.793 1.43629C20.817 1.5109 20.8438 1.585 20.8438 1.66664V13.3333Z" fill="#B09673"/>
</svg>
