<svg width="20" height="20" viewBox="0 0 20 20" fill="none" xmlns="http://www.w3.org/2000/svg">
<path d="M19.4752 15.4293L15.4271 12.7295C14.9134 12.3897 14.2248 12.5015 13.845 12.9865L12.6658 14.5027C12.5143 14.7025 12.2388 14.7605 12.0196 14.6387L11.7953 14.5151C11.0518 14.1097 10.1266 13.6051 8.26251 11.7403C6.39845 9.87541 5.89287 8.94947 5.48757 8.20722L5.36458 7.9829C5.24113 7.7637 5.29799 7.48704 5.49788 7.33428L7.01297 6.15539C7.49775 5.77553 7.60972 5.08707 7.27028 4.57316L4.57068 0.524806C4.2228 0.00148659 3.52486 -0.155611 2.9863 0.168153L1.29355 1.18507C0.761672 1.49778 0.371456 2.00422 0.204723 2.59828C-0.404835 4.81944 0.053729 8.65281 5.70024 14.3004C10.1919 18.792 13.5358 19.9999 15.8341 19.9999C16.363 20.0022 16.8899 19.9334 17.4005 19.7953C17.9947 19.6288 18.5012 19.2385 18.8136 18.7064L19.8315 17.0145C20.1557 16.4758 19.9987 15.7774 19.4752 15.4293ZM19.2572 16.6725L18.2417 18.3654C18.0173 18.7495 17.653 19.0318 17.2252 19.1534C15.1748 19.7163 11.5927 19.25 6.17181 13.8288C0.750931 8.40752 0.284711 4.82545 0.847635 2.77463C0.969336 2.34623 1.25203 1.98145 1.6365 1.7567L3.32926 0.741117C3.56294 0.600503 3.86586 0.668662 4.01681 0.895754L5.48328 3.09758L6.71411 4.94376C6.86151 5.16667 6.81308 5.46544 6.6028 5.63039L5.08736 6.80928C4.62618 7.16195 4.49448 7.80006 4.77842 8.30651L4.89875 8.52517C5.32471 9.30643 5.85428 10.2783 7.78766 12.2116C9.72105 14.1447 10.6926 14.6744 11.4734 15.1003L11.6924 15.221C12.1988 15.5049 12.8369 15.3732 13.1895 14.912L14.3683 13.3965C14.5333 13.1863 14.8319 13.1379 15.0549 13.2851L19.1026 15.9849C19.3299 16.1358 19.398 16.4389 19.2572 16.6725Z" fill="#B09673"/>
</svg>
